<?xml version="1.0" encoding="utf-8"?>
<!-- Generator: Adobe Illustrator 21.1.0, SVG Export Plug-In . SVG Version: 6.00 Build 0)  -->
<svg version="1.1" id="Livello_1" xmlns="http://www.w3.org/2000/svg" xmlns:xlink="http://www.w3.org/1999/xlink" x="0px" y="0px"
	 viewBox="0 0 91.7 35" style="enable-background:new 0 0 91.7 35;" xml:space="preserve">
<g id="llave1">
	<g>
		<path d="M14.7,5.4l0.8,1L4.8,16.7L15.4,27l-0.8,1L2.8,16.7L14.7,5.4z"/>
	</g>
</g>
<g id="es">
	<g>
		<path d="M34.3,6.6h-9.6v9.1h6.9V17h-6.9v9.7h9.8V28H23.2V5.4h11L34.3,6.6L34.3,6.6z"/>
		<path d="M51.7,8.6c-1.4-1.2-3-2.4-5-2.4c-2.3,0-4.2,1.6-4.2,3.9c0,1.8,0.8,2.9,3.5,4.6l1.8,1.1C51.4,18,53,19.2,53,22
			c0,3.9-2.5,6.3-6.4,6.3c-2.7,0-4.8-1.3-6.4-3.3l1.1-0.9c1.2,1.7,3.1,3,5.2,3c2.6,0,4.8-1.9,4.8-4.6c0-2.1-0.3-2.9-4.4-5.4
			l-2.1-1.3C42.9,14.5,41,13,41,10.3C41,6.9,43.6,5,46.8,5C49,5,51,6.1,52.6,7.5L51.7,8.6z"/>
	</g>
</g>
<g id="llave2">
	<g>
		<path d="M60.2,28.8l9.3-24.3h1.4l-9.3,24.3H60.2z"/>
		<path d="M90.6,16.7L78.8,28L78,27l10.7-10.3L78,6.4l0.8-1L90.6,16.7z"/>
	</g>
</g>
</svg>
